# xmcd
#
# Track frame offsets: 
#        182
#        15195
#        31817
#        46960
#        63150
#        78440
#        94100
#        108652
#        123752
#        136262
#        153452
#        169257
#        185587
#        200630
#        215815
#        231720
#        249777
#        271437
#        287680
#        298977
#        313570
#
# Disc length: 4488 seconds
#
# Revision: 2
# Processed by: cddbd v1.5.2PL0 Copyright (c) Steve Scherf et al.
# Submitted via: ExactAudioCopy v0.99pb4
#
DISCID=32118615
DTITLE=Various Artist - Rhythm And Blues - 1972
DYEAR=1996
DGENRE=R&B
TTITLE0=Staple Singers - I'll Take You There
TTITLE1=Al Green - Let's Stay Together
TTITLE2=Frederick Knight - I've Been Lonely For So Long
TTITLE3=Mel And Tim - Starting All Over Again
TTITLE4=Cornelius Brothers And Sister Rose - Too Late To Turn Back Now
TTITLE5=Luther Ingram - (If Loving You Is Wrong) I Don't Want To Be Ri
TTITLE5=ght
TTITLE6=Spinners - I'll Be Around
TTITLE7=Main Ingredient - Everybody Plays The Fool
TTITLE8=Betty Wright - Clean Up Woman
TTITLE9=Bill Withers - Lean On Me
TTITLE10=Chi-Lites - Oh Girl
TTITLE11=James Brown - Get On The Good Foot Part 1
TTITLE12=Isaac Hayes - Do Your Thing
TTITLE13=Curtis Mayfield - Freddie's Dead (Theme From Superfly)
TTITLE14=Bobby Womack - Woman's Gotta Have It
TTITLE15=Aretha Franklin - Day Dreaming
TTITLE16=Billy Paul - Me And Mrs. Jones
TTITLE17=Soul Children - Hearsay
TTITLE18=Joe Tex - I Gotcha
TTITLE19=Al Green - I'm Still In Love With You
TTITLE20=Dramatics - In The Rain
EXTD=
EXTT0=The Staple Singers\n
EXTT1=Al Green\n
EXTT2=Frederick Knight\n
EXTT3=Mel and Tim\n
EXTT4=Cornelius Brothers and Sister Rose\n
EXTT5=Luther Ingram\n
EXTT6=The Spinners\n
EXTT7=The Main Ingredient\n
EXTT8=Betty Wright\n
EXTT9=Bill Withers\n
EXTT10=The Chi-Lites\n
EXTT11=James Brown\n
EXTT12=Isaac Hayes\n
EXTT13=Curtis Mayfield\n
EXTT14=Bobby Womack\n
EXTT15=Aretha Franklin\n
EXTT16=Billy Paul\n
EXTT17=The Soul Children\n
EXTT18=Joe Tex\n
EXTT19=Al Green\n
EXTT20=The Dramatics\n
PLAYORDER=
